<svg width="71" height="31" viewBox="0 0 71 31" fill="none" xmlns="http://www.w3.org/2000/svg">
<path d="M4.512 25L0.624 8.248H3.792L5.448 16.288L6.48 21.424H6.552L7.752 16.288L9.672 8.248H13.176L15.096 16.288L16.272 21.424H16.344L17.4 16.288L19.104 8.248H22.128L18.12 25H14.544L12.408 16.144L11.376 11.728H11.328L10.248 16.144L8.112 25H4.512ZM33.1873 25C32.5153 25 31.9793 24.808 31.5793 24.424C31.1953 24.024 30.9553 23.496 30.8593 22.84H30.7153C30.5073 23.656 30.0833 24.272 29.4433 24.688C28.8033 25.088 28.0113 25.288 27.0673 25.288C25.7873 25.288 24.8033 24.952 24.1153 24.28C23.4273 23.608 23.0833 22.712 23.0833 21.592C23.0833 20.296 23.5473 19.336 24.4753 18.712C25.4033 18.072 26.7233 17.752 28.4353 17.752H30.5713V16.84C30.5713 16.136 30.3873 15.592 30.0193 15.208C29.6513 14.824 29.0593 14.632 28.2433 14.632C27.5233 14.632 26.9393 14.792 26.4913 15.112C26.0593 15.416 25.6913 15.784 25.3873 16.216L23.5633 14.584C24.0273 13.864 24.6433 13.288 25.4113 12.856C26.1793 12.408 27.1953 12.184 28.4593 12.184C30.1553 12.184 31.4433 12.568 32.3233 13.336C33.2033 14.104 33.6433 15.208 33.6433 16.648V22.552H34.8913V25H33.1873ZM28.0993 23.056C28.7873 23.056 29.3713 22.904 29.8513 22.6C30.3313 22.296 30.5713 21.848 30.5713 21.256V19.6H28.6033C27.0033 19.6 26.2033 20.112 26.2033 21.136V21.544C26.2033 22.056 26.3633 22.44 26.6833 22.696C27.0193 22.936 27.4913 23.056 28.0993 23.056ZM41.1958 25C40.1398 25 39.3318 24.728 38.7718 24.184C38.2278 23.624 37.9558 22.832 37.9558 21.808V14.92H36.1078V12.472H37.0678C37.5318 12.472 37.8438 12.368 38.0038 12.16C38.1798 11.936 38.2678 11.608 38.2678 11.176V9.04H41.0278V12.472H43.5958V14.92H41.0278V22.552H43.4038V25H41.1958ZM51.1106 25.288C50.1826 25.288 49.3586 25.136 48.6386 24.832C47.9186 24.528 47.3106 24.088 46.8146 23.512C46.3346 22.936 45.9666 22.248 45.7106 21.448C45.4546 20.632 45.3266 19.72 45.3266 18.712C45.3266 17.704 45.4546 16.8 45.7106 16C45.9666 15.2 46.3346 14.52 46.8146 13.96C47.3106 13.384 47.9186 12.944 48.6386 12.64C49.3586 12.336 50.1826 12.184 51.1106 12.184C52.3746 12.184 53.4146 12.464 54.2306 13.024C55.0626 13.584 55.6626 14.36 56.0306 15.352L53.5106 16.48C53.3666 15.952 53.0946 15.52 52.6946 15.184C52.3106 14.832 51.7826 14.656 51.1106 14.656C50.2466 14.656 49.5986 14.928 49.1666 15.472C48.7506 16.016 48.5426 16.728 48.5426 17.608V19.888C48.5426 20.768 48.7506 21.48 49.1666 22.024C49.5986 22.552 50.2466 22.816 51.1106 22.816C51.8466 22.816 52.4146 22.632 52.8146 22.264C53.2146 21.88 53.5266 21.408 53.7506 20.848L56.1026 21.976C55.6866 23.08 55.0546 23.912 54.2066 24.472C53.3586 25.016 52.3266 25.288 51.1106 25.288ZM58.4713 7.24H61.5433V14.56H61.6633C61.9193 13.888 62.3193 13.328 62.8633 12.88C63.4233 12.416 64.1913 12.184 65.1673 12.184C66.4633 12.184 67.4553 12.608 68.1433 13.456C68.8313 14.304 69.1753 15.512 69.1753 17.08V25H66.1033V17.392C66.1033 16.496 65.9433 15.824 65.6233 15.376C65.3033 14.928 64.7753 14.704 64.0393 14.704C63.7193 14.704 63.4073 14.752 63.1033 14.848C62.8153 14.928 62.5513 15.056 62.3113 15.232C62.0873 15.392 61.9033 15.6 61.7593 15.856C61.6153 16.096 61.5433 16.384 61.5433 16.72V25H58.4713V7.24Z" fill="#47E9FF"/>
</svg>
