<svg width="47" height="18" viewBox="0 0 47 18" fill="none" xmlns="http://www.w3.org/2000/svg">
<path d="M1.84 2.216H1.768V17H0.376V0.248H2.176L10.984 15.032H11.056V0.248H12.448V17H10.648L1.84 2.216ZM21.4521 17.288C20.6361 17.288 19.8921 17.144 19.2201 16.856C18.5641 16.568 17.9961 16.152 17.5161 15.608C17.0521 15.048 16.6921 14.368 16.4361 13.568C16.1961 12.768 16.0761 11.864 16.0761 10.856C16.0761 9.848 16.1961 8.952 16.4361 8.168C16.6921 7.368 17.0521 6.696 17.5161 6.152C17.9961 5.592 18.5641 5.168 19.2201 4.88C19.8761 4.576 20.6121 4.424 21.4281 4.424C22.2121 4.424 22.9241 4.576 23.5641 4.88C24.2041 5.168 24.7481 5.576 25.1961 6.104C25.6441 6.632 25.9881 7.272 26.2281 8.024C26.4841 8.76 26.6121 9.576 26.6121 10.472V11.12H17.5161V11.72C17.5161 12.36 17.6041 12.952 17.7801 13.496C17.9721 14.024 18.2361 14.48 18.5721 14.864C18.9241 15.248 19.3481 15.552 19.8441 15.776C20.3401 15.984 20.9001 16.088 21.5241 16.088C23.3161 16.088 24.5561 15.264 25.2441 13.616L26.2521 14.288C25.8681 15.2 25.2601 15.928 24.4281 16.472C23.6121 17.016 22.6201 17.288 21.4521 17.288ZM21.4281 5.576C20.8361 5.576 20.3001 5.688 19.8201 5.912C19.3401 6.12 18.9241 6.416 18.5721 6.8C18.2361 7.184 17.9721 7.648 17.7801 8.192C17.6041 8.72 17.5161 9.304 17.5161 9.944V10.064H25.1241V9.872C25.1241 9.232 25.0361 8.648 24.8601 8.12C24.6841 7.576 24.4281 7.12 24.0921 6.752C23.7721 6.384 23.3801 6.096 22.9161 5.888C22.4681 5.68 21.9721 5.576 21.4281 5.576ZM28.2256 17L32.7856 10.808L28.3936 4.712H30.0016L33.5056 9.728H33.5776L37.1536 4.712H38.6896L34.3216 10.712L38.8096 17H37.2016L33.5776 11.816H33.5296L29.7616 17H28.2256ZM43.7815 17C43.2855 17 42.9095 16.864 42.6535 16.592C42.3975 16.32 42.2695 15.952 42.2695 15.488V5.912H40.1335V4.712H41.5255C41.8615 4.712 42.0855 4.648 42.1975 4.52C42.3255 4.376 42.3895 4.128 42.3895 3.776V1.28H43.6375V4.712H46.4215V5.912H43.6375V15.8H46.2295V17H43.7815Z" fill="#47E9FF"/>
</svg>
