<svg width="20" height="28" viewBox="0 0 20 28" fill="none" xmlns="http://www.w3.org/2000/svg">
<path d="M9.64817 0C5.28307 0 2.45578 1.78845 0.236074 4.97798C-0.166591 5.55658 -0.0424499 6.34988 0.519245 6.77578L2.87836 8.56455C3.44563 8.99467 4.25276 8.8941 4.69688 8.33771C6.06675 6.62156 7.08289 5.63347 9.22265 5.63347C10.9051 5.63347 12.986 6.71623 12.986 8.34766C12.986 9.58098 11.9679 10.2144 10.3067 11.1457C8.36953 12.2318 5.806 13.5834 5.806 16.9647V17.5C5.806 18.2249 6.39361 18.8125 7.1185 18.8125H11.0818C11.8066 18.8125 12.3943 18.2249 12.3943 17.5V17.1843C12.3943 14.8404 19.2448 14.7428 19.2448 8.4C19.2449 3.62338 14.2901 0 9.64817 0ZM9.10015 20.4235C7.01131 20.4235 5.31189 22.123 5.31189 24.2118C5.31189 26.3006 7.01131 28 9.10015 28C11.189 28 12.8884 26.3006 12.8884 24.2117C12.8884 22.1229 11.189 20.4235 9.10015 20.4235Z" fill="#47E9FF"/>
</svg>
