<svg width="28" height="22" viewBox="0 0 28 22" fill="none" xmlns="http://www.w3.org/2000/svg">
<path d="M26.6875 0.5H26.25V1.59375C26.25 1.95469 25.9547 2.25 25.5938 2.25H23.4062C23.0453 2.25 22.75 1.95469 22.75 1.59375V0.5H5.25V1.59375C5.25 1.95469 4.95469 2.25 4.59375 2.25H2.40625C2.04531 2.25 1.75 1.95469 1.75 1.59375V0.5H1.3125C0.585156 0.5 0 1.08516 0 1.8125V20.1875C0 20.9148 0.585156 21.5 1.3125 21.5H1.75V20.4062C1.75 20.0453 2.04531 19.75 2.40625 19.75H4.59375C4.95469 19.75 5.25 20.0453 5.25 20.4062V21.5H22.75V20.4062C22.75 20.0453 23.0453 19.75 23.4062 19.75H25.5938C25.9547 19.75 26.25 20.0453 26.25 20.4062V21.5H26.6875C27.4148 21.5 28 20.9148 28 20.1875V1.8125C28 1.08516 27.4148 0.5 26.6875 0.5ZM5.25 17.3438C5.25 17.7047 4.95469 18 4.59375 18H2.40625C2.04531 18 1.75 17.7047 1.75 17.3438V15.1562C1.75 14.7953 2.04531 14.5 2.40625 14.5H4.59375C4.95469 14.5 5.25 14.7953 5.25 15.1562V17.3438ZM5.25 12.0938C5.25 12.4547 4.95469 12.75 4.59375 12.75H2.40625C2.04531 12.75 1.75 12.4547 1.75 12.0938V9.90625C1.75 9.54531 2.04531 9.25 2.40625 9.25H4.59375C4.95469 9.25 5.25 9.54531 5.25 9.90625V12.0938ZM5.25 6.84375C5.25 7.20469 4.95469 7.5 4.59375 7.5H2.40625C2.04531 7.5 1.75 7.20469 1.75 6.84375V4.65625C1.75 4.29531 2.04531 4 2.40625 4H4.59375C4.95469 4 5.25 4.29531 5.25 4.65625V6.84375ZM20.125 18.2188C20.125 18.5797 19.8297 18.875 19.4688 18.875H8.53125C8.17031 18.875 7.875 18.5797 7.875 18.2188V12.9688C7.875 12.6078 8.17031 12.3125 8.53125 12.3125H19.4688C19.8297 12.3125 20.125 12.6078 20.125 12.9688V18.2188ZM20.125 9.03125C20.125 9.39219 19.8297 9.6875 19.4688 9.6875H8.53125C8.17031 9.6875 7.875 9.39219 7.875 9.03125V3.78125C7.875 3.42031 8.17031 3.125 8.53125 3.125H19.4688C19.8297 3.125 20.125 3.42031 20.125 3.78125V9.03125ZM26.25 17.3438C26.25 17.7047 25.9547 18 25.5938 18H23.4062C23.0453 18 22.75 17.7047 22.75 17.3438V15.1562C22.75 14.7953 23.0453 14.5 23.4062 14.5H25.5938C25.9547 14.5 26.25 14.7953 26.25 15.1562V17.3438ZM26.25 12.0938C26.25 12.4547 25.9547 12.75 25.5938 12.75H23.4062C23.0453 12.75 22.75 12.4547 22.75 12.0938V9.90625C22.75 9.54531 23.0453 9.25 23.4062 9.25H25.5938C25.9547 9.25 26.25 9.54531 26.25 9.90625V12.0938ZM26.25 6.84375C26.25 7.20469 25.9547 7.5 25.5938 7.5H23.4062C23.0453 7.5 22.75 7.20469 22.75 6.84375V4.65625C22.75 4.29531 23.0453 4 23.4062 4H25.5938C25.9547 4 26.25 4.29531 26.25 4.65625V6.84375Z" fill="#47E9FF"/>
</svg>
